<svg width="14" height="8" viewBox="0 0 14 8" fill="none" xmlns="http://www.w3.org/2000/svg">
<path d="M13.7317 1.58121C13.9053 1.409 14 1.18982 14 0.931506C14 0.414873 13.5896 -1.17184e-07 13.0688 -9.4417e-08C12.8083 -8.30333e-08 12.5716 0.109589 12.3901 0.289628L6.99211 5.76908L1.60992 0.289628C1.42841 0.109589 1.18377 4.25093e-07 0.931229 4.36132e-07C0.410372 4.58899e-07 -3.31556e-07 0.414873 -3.08974e-07 0.931507C-2.97682e-07 1.18982 0.094701 1.409 0.26832 1.58121L6.26607 7.67123C6.47125 7.89041 6.72379 7.99217 7 8C7.27621 8 7.51297 7.89041 7.72604 7.67123L13.7317 1.58121Z" fill="#1C222B"/>
</svg>
