<svg width="18" height="19" viewBox="0 0 18 19" fill="none" xmlns="http://www.w3.org/2000/svg">
<path fill-rule="evenodd" clip-rule="evenodd" d="M3.60008 4.95245C3.60008 2.22167 6.02252 0 9.00008 0C11.9776 0 14.4001 2.22167 14.4001 4.95245C14.4001 7.68322 11.9776 9.90489 9.00008 9.90489C6.02252 9.90489 3.60008 7.68322 3.60008 4.95245ZM10.2 11.0054C12.2804 11.0054 14.2402 11.7636 15.7186 13.1403C17.1898 14.5103 18 16.3186 18 18.2323C18 18.5362 17.7314 18.7826 17.4 18.7826H0.6C0.26864 18.7826 0 18.5362 0 18.2323C0 16.3186 0.8102 14.5103 2.28136 13.1403C3.75976 11.7636 5.71968 11.0054 7.8 11.0054H10.2Z" fill="#C3C4C9"/>
</svg>
