<svg width="20" height="20" viewBox="0 0 20 20" fill="none" xmlns="http://www.w3.org/2000/svg">
<path d="M16.1331 5.36796V2.89051C16.1331 1.297 14.9836 0 13.5427 0H6.48048C5.03963 0 3.86645 1.29654 3.86645 2.89051V5.3675H1.13734C0.509232 5.3675 0 5.93068 0 6.62534V9.35967C0 10.0548 0.509232 10.6175 1.13734 10.6175H1.47627L2.71899 18.1678C2.81722 18.7655 3.28851 19.2 3.83779 19.2H16.1858C16.7355 19.2 17.206 18.7655 17.3046 18.1673L18.5465 10.6175H18.8627C19.4908 10.6175 20 10.0548 20 9.35967V6.62534C20 5.93068 19.4908 5.3675 18.8627 5.3675L16.1331 5.36796ZM5.97336 2.89051C5.97336 2.58654 6.20563 2.33013 6.48048 2.33013H13.544C13.8184 2.33013 14.0271 2.58654 14.0271 2.89051V5.3675H5.97336V2.89051ZM7.54658 14.7048C7.54658 15.1882 7.19712 15.5799 6.75997 15.5799C6.32324 15.5799 5.97336 15.1882 5.97336 14.7048V9.90094C5.97336 9.41748 6.32324 9.02633 6.75997 9.02633C7.19754 9.02633 7.54658 9.41841 7.54658 9.90094V14.7048ZM10.8001 14.7048C10.8001 15.1882 10.4502 15.5799 10.0135 15.5799C9.57676 15.5799 9.22646 15.1882 9.22646 14.7048V9.90094C9.22646 9.41748 9.57676 9.02633 10.0135 9.02633C10.4506 9.02633 10.8001 9.41841 10.8001 9.90094V14.7048ZM14.0536 14.7048C14.0536 15.1882 13.7037 15.5799 13.2674 15.5799C12.8303 15.5799 12.4804 15.1882 12.4804 14.7048V9.90094C12.4804 9.41748 12.8303 9.02633 13.2674 9.02633C13.7037 9.02633 14.0536 9.41841 14.0536 9.90094V14.7048Z" fill="#C3C4C9"/>
</svg>
