<svg width="21" height="20" viewBox="0 0 21 20" fill="none" xmlns="http://www.w3.org/2000/svg">
<path d="M11.7767 4.51032C11.7767 3.95803 11.329 3.51032 10.7767 3.51032H9.19642L9.83221 2.23883L13.1388 1.29413C13.4515 1.20479 13.6325 0.878874 13.5432 0.566176C13.4539 0.253485 13.1279 0.0724248 12.8152 0.161766L9.01051 1.24884L7.87979 3.51032H0.999999C0.447715 3.51032 0 3.95803 0 4.51032V5.45449C0 6.00678 0.447715 6.45449 1 6.45449H10.7767C11.329 6.45449 11.7767 6.00678 11.7767 5.45449V4.51032Z" fill="#C3C4C9"/>
<path d="M8.24451 15.8758H18.8435V17.0535H8.24451V15.8758Z" fill="#C3C4C9"/>
<path d="M5.88743 14.6984C5.88743 11.7933 7.80998 9.32879 10.4496 8.51023C10.4842 8.0361 10.1089 7.63235 9.6335 7.63235H2.84303C2.00442 7.63235 1.34684 8.35244 1.42276 9.1876L2.24018 18.179C2.33383 19.2091 3.19756 19.9979 4.23196 19.9979H6.20431C6.0032 19.6512 5.88743 19.2491 5.88743 18.8202V14.6984Z" fill="#C3C4C9"/>
<path d="M7.06519 14.6982H20.0196C20.0196 11.776 17.6422 9.39865 14.72 9.39865H12.3647C9.44255 9.39865 7.06519 11.776 7.06519 14.6982Z" fill="#C3C4C9"/>
<path d="M7.06519 18.8201C7.06519 19.4695 7.59349 19.9977 8.24286 19.9977H18.8407C19.49 19.9977 20.0183 19.4695 20.0183 18.8201V18.2312H7.06519V18.8201Z" fill="#C3C4C9"/>
</svg>
