<svg width="16" height="21" viewBox="0 0 16 21" fill="none" xmlns="http://www.w3.org/2000/svg">
<path d="M8 0C3.58878 0 0 3.2835 0 7.31946C0 12.3282 7.15922 19.6813 7.46403 19.9919C7.75033 20.2837 8.25019 20.2831 8.53597 19.9919C8.84078 19.6813 16 12.3282 16 7.31946C15.9999 3.2835 12.4112 0 8 0ZM8 11.0021C5.7806 11.0021 3.97504 9.35006 3.97504 7.31946C3.97504 5.28885 5.78065 3.63687 8 3.63687C10.2194 3.63687 12.0249 5.28889 12.0249 7.3195C12.0249 9.3501 10.2194 11.0021 8 11.0021Z" fill="#C3C4C9"/>
</svg>
